#!OML:ASF F:\VICON\USERDATA\INSTALL\rory3\rory3.ASF
:FULLY-SPECIFIED
:DEGREES
303
root 5.91845 17.2184 -1.52773 -4.06495 -55.3214 -6.69919
lowerback 7.20796 3.66109 -1.67999
upperback 2.84387 4.64714 -2.67361
thorax -1.00368 2.29756 -2.17903
lowerneck 1.875 7.39554 -3.95712
upperneck 18.778 8.41717 10.0448
head 4.66558 4.32878 4.01867
rclavicle -7.1811e-015 5.725e-014
rhumerus -12.8738 19.4643 -73.9397
rradius 137.949
rwrist 2.73432
rhand -20.9555 10.4269
rfingers 7.12502
rthumb 5.41728 -19.4839
lclavicle -7.1811e-015 5.725e-014
lhumerus -3.28248 -17.4617 76.7799
lradius 144.259
lwrist 3.13972
lhand -24.2085 10.018
lfingers 7.12502
lthumb 2.27598 39.9856
rfemur 0.280427 5.98099 15.1937
rtibia 60.0751
rfoot -13.5345 -3.19608
rtoes -33.7087
lfemur -21.7022 -1.00107 0.389172
ltibia 56.2849
lfoot -9.99958 7.14315
ltoes -31.1655
304
root 5.9068 17.1714 -1.55907 -3.43602 -56.1744 -6.72069
lowerback 7.09731 3.79949 -1.57007
upperback 2.58549 4.8416 -2.58459
thorax -1.20313 2.39661 -2.16703
lowerneck 1.24806 7.31496 -4.27025
upperneck 18.6555 8.35124 10.0807
head 4.71965 4.29611 4.10131
rclavicle 9.39506e-014 -1.11319e-014
rhumerus -13.3914 19.5807 -74.6166
rradius 137.765
rwrist 3.16466
rhand -20.7779 10.734
rfingers 7.12502
rthumb 5.58881 -19.1723
lclavicle 9.39506e-014 -1.11319e-014
lhumerus -5.07039 -17.4596 77.5612
lradius 144.634
lwrist 2.99237
lhand -24.5164 10.335
lfingers 7.12502
lthumb 1.97868 40.3055
rfemur 0.951277 5.82352 15.6662
rtibia 58.9374
rfoot -15.4004 -6.54699
rtoes -30.0727
lfemur -22.5447 -0.0623068 0.886595
ltibia 57.4031
lfoot -10.1538 6.15966
ltoes -31.3435
305
root 5.91239 17.0829 -1.6098 -2.72898 -56.9122 -6.73463
lowerback 7.2829 3.87646 -1.47959
upperback 2.19006 4.93921 -2.52605
thorax -1.70905 2.44605 -2.19734
lowerneck 0.94942 7.30447 -4.68179
upperneck 18.2926 8.38933 10.1333
head 4.6325 4.30107 4.1824
rclavicle -1.24737e-013 1.11319e-014
rhumerus -13.8856 19.6253 -75.3814
rradius 137.66
rwrist 3.2773
rhand -20.3774 10.8426
rfingers 7.12502
rthumb 5.97548 -19.0532
lclavicle -1.24737e-013 1.11319e-014
lhumerus -7.07559 -17.2709 78.1664
lradius 145.01
lwrist 2.77143
lhand -24.7021 10.2712
lfingers 7.12502
lthumb 1.79932 40.2433
rfemur 1.44112 6.04853 16.1498
rtibia 57.4792
rfoot -20.2519 -9.06655
rtoes -34.2266
lfemur -23.9286 0.829923 1.46761
ltibia 58.8174
lfoot -9.52782 5.12011
ltoes -31.3095
306
root 5.92355 17.0077 -1.65447 -2.132 -57.7662 -6.72866
lowerback 7.2664 4.03533 -1.02001
upperback 2.12478 5.18142 -2.62293
thorax -1.71121 2.56771 -2.57274
lowerneck 0.565252 7.21233 -5.28103
upperneck 17.5391 8.34435 10.2957
head 4.43209 4.26455 4.31449
rclavicle 5.04416e-014 1.90833e-014
rhumerus -13.7635 19.195 -75.9432
rradius 137.466
rwrist 3.37268
rhand -20.0914 10.977
rfingers 7.12502
rthumb 6.25155 -18.9108
lclavicle 5.04416e-014 1.90833e-014
lhumerus -8.47194 -17.1329 78.4053
lradius 145.327
lwrist 2.85215
lhand -24.7024 10.1055
lfingers 7.12502
lthumb 1.79903 40.0777
rfemur 1.88816 6.39995 16.5433
rtibia 55.8939
rfoot -24.8314 -9.05152
rtoes -30.2841
lfemur -25.3424 1.59103 2.00278
ltibia 60.3911
lfoot -8.36327 4.27275
ltoes -31.1544
307
root 5.94168 16.9744 -1.6949 -1.64269 -58.5511 -6.75281
lowerback 7.47537 4.08362 -0.567415
upperback 2.16155 5.27352 -2.63791
thorax -1.74314 2.61355 -2.86082
lowerneck -0.0513736 7.2055 -5.94569
upperneck 16.9924 8.4425 10.3014
head 4.32954 4.29247 4.42907
rclavicle -5.18828e-014 2.38542e-014
rhumerus -13.2376 18.9922 -76.3016
rradius 137.194
rwrist 3.45376
rhand -20.582 10.9058
rfingers 7.12502
rthumb 5.77797 -18.9954
lclavicle -5.18828e-014 2.38542e-014
lhumerus -9.86382 -16.7281 78.5086
lradius 145.672
lwrist 3.10973
lhand -24.8499 10.0859
lfingers 7.12502
lthumb 1.65656 40.0592
rfemur 2.09995 6.40052 16.8068
rtibia 54.3426
rfoot -27.1986 -10.6121
rtoes -28.4001
lfemur -26.7879 2.38166 2.47264
ltibia 62.1038
lfoot -6.76935 3.52698
ltoes -33.0046
308
root 5.97703 16.9268 -1.73937 -1.04653 -59.3424 -6.96708
lowerback 7.9949 4.09034 -0.201903
upperback 2.1456 5.30086 -2.54868
thorax -2.02084 2.62373 -3.01711
lowerneck -0.737339 7.2623 -6.31108
upperneck 16.6963 8.6551 9.91846
head 4.34213 4.37325 4.3917
rclavicle 2.40032e-014 -2.70347e-014
rhumerus -12.6192 19.0236 -76.6096
rradius 136.998
rwrist 3.1954
rhand -21.0342 10.3715
rfingers 7.12502
rthumb 5.34129 -19.5412
lclavicle 2.40032e-014 -2.70347e-014
lhumerus -11.2828 -15.9861 78.4717
lradius 145.967
lwrist 3.68499
lhand -24.6751 9.66008
lfingers 7.12502
lthumb 1.82537 39.632
rfemur 2.29388 6.43404 17.0697
rtibia 52.9633
rfoot -28.9018 -12.9674
rtoes -26.9636
lfemur -28.4791 3.16391 3.05282
ltibia 63.9504
lfoot -4.60072 2.81603
ltoes -34.7441
309
root 6.01935 16.8806 -1.78166 -0.405786 -60.2518 -7.17234
lowerback 8.36469 4.23455 0.287931
upperback 2.25974 5.52434 -2.59197
thorax -2.04488 2.73377 -3.37806
lowerneck -1.30115 7.22062 -6.39155
upperneck 16.0675 8.74913 9.39411
head 4.26493 4.40383 4.247
rclavicle 8.06072e-014 4.77083e-015
rhumerus -11.7852 18.6968 -76.8048
rradius 136.914
rwrist 2.8791
rhand -21.676 10.0453
rfingers 7.12502
rthumb 4.72161 -19.8821
lclavicle 8.06072e-014 4.77083e-015
lhumerus -12.0768 -15.4242 78.1107
lradius 146.137
lwrist 4.46195
lhand -24.0768 9.48525
lfingers 7.12502
lthumb 2.40317 39.4515
rfemur 2.14518 6.78657 17.2565
rtibia 51.918
rfoot -30.2967 -15.0885
rtoes -25.4781
lfemur -30.2863 3.96469 3.63928
ltibia 65.7301
lfoot -1.9072 2.18205
ltoes -34.7779
